# xmcd CD database file
#
# Track frame offsets:
#	150
#	24263
#	41288
#	56738
#	75638
#	93900
#	113325
#	131213
#	147638
#	162713
#
# Disc length: 2411 seconds
#
# Revision: 0
# Processed by: cddbd v1.5.2PL0 Copyright (c) Steve Scherf et al.
# Submitted via: CDex 1.51
#
DISCID=8009690a
DTITLE=DownRiver Dan - Without You
DYEAR=2014
DGENRE=Blues
TTITLE0=End of My Road
TTITLE1=John's Song
TTITLE2=Everybody Gets The Blues
TTITLE3=Take Me Away
TTITLE4=Nothin' Left to Save
TTITLE5=She Only Loves Me
TTITLE6=Since You Been Gone
TTITLE7=Up Meets Down
TTITLE8=Wheels
TTITLE9=You Need Somebody
EXTD=YEAR: 2014
EXTT0=
EXTT1=
EXTT2=
EXTT3=
EXTT4=
EXTT5=
EXTT6=
EXTT7=
EXTT8=
EXTT9=
PLAYORDER=
